<svg xmlns="http://www.w3.org/2000/svg" xmlns:xlink="http://www.w3.org/1999/xlink" contentStyleType="text/css" data-diagram-type="SEQUENCE" height="957px" preserveAspectRatio="none" style="width:1219px;height:957px;background:#FFFFFF;" version="1.1" viewBox="0 0 1219 957" width="1219px" zoomAndPan="magnify"><defs/><g><rect fill="#DDDDDD" height="945.0469" style="stroke:#181818;stroke-width:0.5;" width="722.938" x="121.6304" y="6"/><text fill="#000000" font-family="sans-serif" font-size="13" font-weight="bold" lengthAdjust="spacing" textLength="126.9849" x="419.6069" y="18.0669">macOS Computer</text><rect fill="#DDDDDD" height="945.0469" style="stroke:#181818;stroke-width:0.5;" width="366.8755" x="846.5684" y="6"/><text fill="#000000" font-family="sans-serif" font-size="13" font-weight="bold" lengthAdjust="spacing" textLength="93.7549" x="983.1287" y="18.0669">Raspberry Pi</text><g><title>User</title><rect fill="#000000" fill-opacity="0.00000" height="790.4531" width="8" x="19.9551" y="81.2969"/><line style="stroke:#181818;stroke-width:0.5;stroke-dasharray:5.0,5.0;" x1="23" x2="23" y1="81.2969" y2="871.75"/></g><g><title>Logic Pro X</title><rect fill="#000000" fill-opacity="0.00000" height="790.4531" width="8" x="167.6772" y="81.2969"/><line style="stroke:#181818;stroke-width:0.5;stroke-dasharray:5.0,5.0;" x1="171.6304" x2="171.6304" y1="81.2969" y2="871.75"/></g><g><title>OBS Studio</title><rect fill="#000000" fill-opacity="0.00000" height="790.4531" width="8" x="270" y="81.2969"/><line style="stroke:#181818;stroke-width:0.5;stroke-dasharray:5.0,5.0;" x1="273.7241" x2="273.7241" y1="81.2969" y2="871.75"/></g><g><title>client.py</title><rect fill="#000000" fill-opacity="0.00000" height="790.4531" width="8" x="506.9131" y="81.2969"/><line style="stroke:#181818;stroke-width:0.5;stroke-dasharray:5.0,5.0;" x1="510.876" x2="510.876" y1="81.2969" y2="871.75"/></g><g><title>MIDI Keyboard</title><rect fill="#000000" fill-opacity="0.00000" height="790.4531" width="8" x="778.4082" y="81.2969"/><line style="stroke:#181818;stroke-width:0.5;stroke-dasharray:5.0,5.0;" x1="782.248" x2="782.248" y1="81.2969" y2="871.75"/></g><g><title>server.py</title><rect fill="#000000" fill-opacity="0.00000" height="790.4531" width="8" x="886.5381" y="81.2969"/><line style="stroke:#181818;stroke-width:0.5;stroke-dasharray:5.0,5.0;" x1="889.5684" x2="889.5684" y1="81.2969" y2="871.75"/></g><g><title>GPIO Light</title><rect fill="#000000" fill-opacity="0.00000" height="790.4531" width="8" x="1007.7017" y="81.2969"/><line style="stroke:#181818;stroke-width:0.5;stroke-dasharray:5.0,5.0;" x1="1010.7876" x2="1010.7876" y1="81.2969" y2="871.75"/></g><g><title>Smart Light/Outlet</title><rect fill="#000000" fill-opacity="0.00000" height="790.4531" width="8" x="1133.5298" y="81.2969"/><line style="stroke:#181818;stroke-width:0.5;stroke-dasharray:5.0,5.0;" x1="1136.6157" x2="1136.6157" y1="81.2969" y2="871.75"/></g><g class="participant participant-head" data-participant="User"><text fill="#000000" font-family="sans-serif" font-size="14" lengthAdjust="spacing" textLength="31.9102" x="5" y="77.9951">User</text><ellipse cx="23.9551" cy="13.5" fill="#E2E2F0" rx="8" ry="8" style="stroke:#181818;stroke-width:0.5;"/><path d="M23.9551,21.5 L23.9551,48.5 M10.9551,29.5 L36.9551,29.5 M23.9551,48.5 L10.9551,63.5 M23.9551,48.5 L36.9551,63.5 " fill="none" style="stroke:#181818;stroke-width:0.5;"/></g><g class="participant participant-tail" data-participant="User"><text fill="#000000" font-family="sans-serif" font-size="14" lengthAdjust="spacing" textLength="31.9102" x="5" y="883.7451">User</text><ellipse cx="23.9551" cy="895.5469" fill="#E2E2F0" rx="8" ry="8" style="stroke:#181818;stroke-width:0.5;"/><path d="M23.9551,903.5469 L23.9551,930.5469 M10.9551,911.5469 L36.9551,911.5469 M23.9551,930.5469 L10.9551,945.5469 M23.9551,930.5469 L36.9551,945.5469 " fill="none" style="stroke:#181818;stroke-width:0.5;"/></g><g class="participant participant-head" data-participant="LPX"><rect fill="#E2E2F0" height="30.2969" rx="2.5" ry="2.5" style="stroke:#181818;stroke-width:0.5;" width="92.0938" x="125.6304" y="50"/><text fill="#000000" font-family="sans-serif" font-size="14" lengthAdjust="spacing" textLength="78.0938" x="132.6304" y="69.9951">Logic Pro X</text></g><g class="participant participant-tail" data-participant="LPX"><rect fill="#E2E2F0" height="30.2969" rx="2.5" ry="2.5" style="stroke:#181818;stroke-width:0.5;" width="92.0938" x="125.6304" y="870.75"/><text fill="#000000" font-family="sans-serif" font-size="14" lengthAdjust="spacing" textLength="78.0938" x="132.6304" y="890.7451">Logic Pro X</text></g><g class="participant participant-head" data-participant="OBS"><rect fill="#E2E2F0" height="30.2969" rx="2.5" ry="2.5" style="stroke:#181818;stroke-width:0.5;" width="92.5518" x="227.7241" y="50"/><text fill="#000000" font-family="sans-serif" font-size="14" lengthAdjust="spacing" textLength="78.5518" x="234.7241" y="69.9951">OBS Studio</text></g><g class="participant participant-tail" data-participant="OBS"><rect fill="#E2E2F0" height="30.2969" rx="2.5" ry="2.5" style="stroke:#181818;stroke-width:0.5;" width="92.5518" x="227.7241" y="870.75"/><text fill="#000000" font-family="sans-serif" font-size="14" lengthAdjust="spacing" textLength="78.5518" x="234.7241" y="890.7451">OBS Studio</text></g><g class="participant participant-head" data-participant="Client"><rect fill="#E2E2F0" height="30.2969" rx="2.5" ry="2.5" style="stroke:#181818;stroke-width:0.5;" width="74.0742" x="473.876" y="50"/><text fill="#000000" font-family="sans-serif" font-size="14" lengthAdjust="spacing" textLength="60.0742" x="480.876" y="69.9951">client.py</text></g><g class="participant participant-tail" data-participant="Client"><rect fill="#E2E2F0" height="30.2969" rx="2.5" ry="2.5" style="stroke:#181818;stroke-width:0.5;" width="74.0742" x="473.876" y="870.75"/><text fill="#000000" font-family="sans-serif" font-size="14" lengthAdjust="spacing" textLength="60.0742" x="480.876" y="890.7451">client.py</text></g><g class="participant participant-head" data-participant="Keyboard"><rect fill="#E2E2F0" height="30.2969" rx="2.5" ry="2.5" style="stroke:#181818;stroke-width:0.5;" width="116.3203" x="724.248" y="50"/><text fill="#000000" font-family="sans-serif" font-size="14" lengthAdjust="spacing" textLength="102.3203" x="731.248" y="69.9951">MIDI Keyboard</text></g><g class="participant participant-tail" data-participant="Keyboard"><rect fill="#E2E2F0" height="30.2969" rx="2.5" ry="2.5" style="stroke:#181818;stroke-width:0.5;" width="116.3203" x="724.248" y="870.75"/><text fill="#000000" font-family="sans-serif" font-size="14" lengthAdjust="spacing" textLength="102.3203" x="731.248" y="890.7451">MIDI Keyboard</text></g><g class="participant participant-head" data-participant="Server"><rect fill="#E2E2F0" height="30.2969" rx="2.5" ry="2.5" style="stroke:#181818;stroke-width:0.5;" width="79.9395" x="850.5684" y="50"/><text fill="#000000" font-family="sans-serif" font-size="14" lengthAdjust="spacing" textLength="65.9395" x="857.5684" y="69.9951">server.py</text></g><g class="participant participant-tail" data-participant="Server"><rect fill="#E2E2F0" height="30.2969" rx="2.5" ry="2.5" style="stroke:#181818;stroke-width:0.5;" width="79.9395" x="850.5684" y="870.75"/><text fill="#000000" font-family="sans-serif" font-size="14" lengthAdjust="spacing" textLength="65.9395" x="857.5684" y="890.7451">server.py</text></g><g class="participant participant-head" data-participant="GPIO"><rect fill="#E2E2F0" height="30.2969" rx="2.5" ry="2.5" style="stroke:#181818;stroke-width:0.5;" width="87.8281" x="967.7876" y="50"/><text fill="#000000" font-family="sans-serif" font-size="14" lengthAdjust="spacing" textLength="73.8281" x="974.7876" y="69.9951">GPIO Light</text></g><g class="participant participant-tail" data-participant="GPIO"><rect fill="#E2E2F0" height="30.2969" rx="2.5" ry="2.5" style="stroke:#181818;stroke-width:0.5;" width="87.8281" x="967.7876" y="870.75"/><text fill="#000000" font-family="sans-serif" font-size="14" lengthAdjust="spacing" textLength="73.8281" x="974.7876" y="890.7451">GPIO Light</text></g><g class="participant participant-head" data-participant="SmartLight"><rect fill="#E2E2F0" height="30.2969" rx="2.5" ry="2.5" style="stroke:#181818;stroke-width:0.5;" width="143.8281" x="1065.6157" y="50"/><text fill="#000000" font-family="sans-serif" font-size="14" lengthAdjust="spacing" textLength="129.8281" x="1072.6157" y="69.9951">Smart Light/Outlet</text></g><g class="participant participant-tail" data-participant="SmartLight"><rect fill="#E2E2F0" height="30.2969" rx="2.5" ry="2.5" style="stroke:#181818;stroke-width:0.5;" width="143.8281" x="1065.6157" y="870.75"/><text fill="#000000" font-family="sans-serif" font-size="14" lengthAdjust="spacing" textLength="129.8281" x="1072.6157" y="890.7451">Smart Light/Outlet</text></g><g class="message" data-participant-1="User" data-participant-2="LPX"><polygon fill="#181818" points="159.6772,108.4297,169.6772,112.4297,159.6772,116.4297,163.6772,112.4297" style="stroke:#181818;stroke-width:1;"/><line style="stroke:#181818;stroke-width:1;" x1="23.9551" x2="165.6772" y1="112.4297" y2="112.4297"/><text fill="#000000" font-family="sans-serif" font-size="13" lengthAdjust="spacing" textLength="123.7222" x="30.9551" y="107.3638">Launch Logic Pro X</text></g><g class="message" data-participant-1="User" data-participant-2="OBS"><polygon fill="#181818" points="262,137.5625,272,141.5625,262,145.5625,266,141.5625" style="stroke:#181818;stroke-width:1;"/><line style="stroke:#181818;stroke-width:1;" x1="23.9551" x2="268" y1="141.5625" y2="141.5625"/><text fill="#000000" font-family="sans-serif" font-size="13" lengthAdjust="spacing" textLength="124.1475" x="30.9551" y="136.4966">Launch OBS Studio</text></g><g class="message" data-participant-1="User" data-participant-2="Client"><polygon fill="#181818" points="498.9131,166.6953,508.9131,170.6953,498.9131,174.6953,502.9131,170.6953" style="stroke:#181818;stroke-width:1;"/><line style="stroke:#181818;stroke-width:1;" x1="23.9551" x2="504.9131" y1="170.6953" y2="170.6953"/><text fill="#000000" font-family="sans-serif" font-size="13" lengthAdjust="spacing" textLength="85.4268" x="30.9551" y="165.6294">Run client.py</text></g><g class="message" data-participant-1="User" data-participant-2="Server"><polygon fill="#181818" points="878.5381,195.8281,888.5381,199.8281,878.5381,203.8281,882.5381,199.8281" style="stroke:#181818;stroke-width:1;"/><line style="stroke:#181818;stroke-width:1;" x1="23.9551" x2="884.5381" y1="199.8281" y2="199.8281"/><text fill="#000000" font-family="sans-serif" font-size="13" lengthAdjust="spacing" textLength="90.873" x="30.9551" y="194.7622">Run server.py</text></g><g class="message" data-participant-1="User" data-participant-2="LPX"><polygon fill="#181818" points="159.6772,224.9609,169.6772,228.9609,159.6772,232.9609,163.6772,228.9609" style="stroke:#181818;stroke-width:1;"/><line style="stroke:#181818;stroke-width:1;" x1="23.9551" x2="165.6772" y1="228.9609" y2="228.9609"/><text fill="#000000" font-family="sans-serif" font-size="13" lengthAdjust="spacing" textLength="84.5889" x="30.9551" y="223.895">Press Record</text></g><g class="message" data-participant-1="LPX" data-participant-2="Client"><polygon fill="#181818" points="498.9131,254.0938,508.9131,258.0938,498.9131,262.0938,502.9131,258.0938" style="stroke:#181818;stroke-width:1;"/><line style="stroke:#181818;stroke-width:1;" x1="171.6772" x2="504.9131" y1="258.0938" y2="258.0938"/><text fill="#000000" font-family="sans-serif" font-size="13" lengthAdjust="spacing" textLength="128.3242" x="178.6772" y="253.0278">Send MIDI message</text></g><g class="message" data-participant-1="Client" data-participant-2="Server"><polygon fill="#181818" points="878.5381,283.2266,888.5381,287.2266,878.5381,291.2266,882.5381,287.2266" style="stroke:#181818;stroke-width:1;"/><line style="stroke:#181818;stroke-width:1;" x1="510.9131" x2="884.5381" y1="287.2266" y2="287.2266"/><text fill="#000000" font-family="sans-serif" font-size="13" lengthAdjust="spacing" textLength="134.145" x="517.9131" y="282.1606">Relay MIDI over OSC</text></g><g class="message" data-participant-1="Client" data-participant-2="OBS"><polygon fill="#181818" points="285,312.3594,275,316.3594,285,320.3594,281,316.3594" style="stroke:#181818;stroke-width:1;"/><line style="stroke:#181818;stroke-width:1;" x1="279" x2="509.9131" y1="316.3594" y2="316.3594"/><text fill="#000000" font-family="sans-serif" font-size="13" lengthAdjust="spacing" textLength="185.3896" x="291" y="311.2935">Start recording (WebSocket)</text></g><g class="message" data-participant-1="Server" data-participant-2="GPIO"><polygon fill="#181818" points="999.7017,341.4922,1009.7017,345.4922,999.7017,349.4922,1003.7017,345.4922" style="stroke:#181818;stroke-width:1;"/><line style="stroke:#181818;stroke-width:1;" x1="890.5381" x2="1005.7017" y1="345.4922" y2="345.4922"/><text fill="#000000" font-family="sans-serif" font-size="13" lengthAdjust="spacing" textLength="96.2495" x="897.5381" y="340.4263">Switch on light</text></g><g class="message" data-participant-1="Server" data-participant-2="SmartLight"><polygon fill="#181818" points="1125.5298,370.625,1135.5298,374.625,1125.5298,378.625,1129.5298,374.625" style="stroke:#181818;stroke-width:1;"/><line style="stroke:#181818;stroke-width:1;" x1="890.5381" x2="1131.5298" y1="374.625" y2="374.625"/><text fill="#000000" font-family="sans-serif" font-size="13" lengthAdjust="spacing" textLength="132.5581" x="897.5381" y="369.5591">Set RGB color to red</text></g><g class="message" data-participant-1="Server" data-participant-2="SmartLight"><polygon fill="#181818" points="1125.5298,399.7578,1135.5298,403.7578,1125.5298,407.7578,1129.5298,403.7578" style="stroke:#181818;stroke-width:1;"/><line style="stroke:#181818;stroke-width:1;" x1="890.5381" x2="1131.5298" y1="403.7578" y2="403.7578"/><text fill="#000000" font-family="sans-serif" font-size="13" lengthAdjust="spacing" textLength="105.4346" x="897.5381" y="398.6919">Switch outlet on</text></g><g class="message" data-participant-1="User" data-participant-2="LPX"><polygon fill="#181818" points="159.6772,428.8906,169.6772,432.8906,159.6772,436.8906,163.6772,432.8906" style="stroke:#181818;stroke-width:1;"/><line style="stroke:#181818;stroke-width:1;" x1="23.9551" x2="165.6772" y1="432.8906" y2="432.8906"/><text fill="#000000" font-family="sans-serif" font-size="13" lengthAdjust="spacing" textLength="99.5186" x="30.9551" y="427.8247">Stop Recording</text></g><g class="message" data-participant-1="LPX" data-participant-2="Client"><polygon fill="#181818" points="498.9131,458.0234,508.9131,462.0234,498.9131,466.0234,502.9131,462.0234" style="stroke:#181818;stroke-width:1;"/><line style="stroke:#181818;stroke-width:1;" x1="171.6772" x2="504.9131" y1="462.0234" y2="462.0234"/><text fill="#000000" font-family="sans-serif" font-size="13" lengthAdjust="spacing" textLength="128.3242" x="178.6772" y="456.9575">Send MIDI message</text></g><g class="message" data-participant-1="Client" data-participant-2="Server"><polygon fill="#181818" points="878.5381,487.1563,888.5381,491.1563,878.5381,495.1563,882.5381,491.1563" style="stroke:#181818;stroke-width:1;"/><line style="stroke:#181818;stroke-width:1;" x1="510.9131" x2="884.5381" y1="491.1563" y2="491.1563"/><text fill="#000000" font-family="sans-serif" font-size="13" lengthAdjust="spacing" textLength="134.145" x="517.9131" y="486.0903">Relay MIDI over OSC</text></g><g class="message" data-participant-1="Client" data-participant-2="OBS"><polygon fill="#181818" points="285,516.2891,275,520.2891,285,524.2891,281,520.2891" style="stroke:#181818;stroke-width:1;"/><line style="stroke:#181818;stroke-width:1;" x1="279" x2="509.9131" y1="520.2891" y2="520.2891"/><text fill="#000000" font-family="sans-serif" font-size="13" lengthAdjust="spacing" textLength="212.9131" x="291" y="515.2231">Stop recording and save footage</text></g><g class="message" data-participant-1="Server" data-participant-2="GPIO"><polygon fill="#181818" points="999.7017,545.4219,1009.7017,549.4219,999.7017,553.4219,1003.7017,549.4219" style="stroke:#181818;stroke-width:1;"/><line style="stroke:#181818;stroke-width:1;" x1="890.5381" x2="1005.7017" y1="549.4219" y2="549.4219"/><text fill="#000000" font-family="sans-serif" font-size="13" lengthAdjust="spacing" textLength="97.1636" x="897.5381" y="544.356">Switch off light</text></g><g class="message" data-participant-1="Server" data-participant-2="SmartLight"><polygon fill="#181818" points="1125.5298,574.5547,1135.5298,578.5547,1125.5298,582.5547,1129.5298,578.5547" style="stroke:#181818;stroke-width:1;"/><line style="stroke:#181818;stroke-width:1;" x1="890.5381" x2="1131.5298" y1="578.5547" y2="578.5547"/><text fill="#000000" font-family="sans-serif" font-size="13" lengthAdjust="spacing" textLength="139.0645" x="897.5381" y="573.4888">Set RGB color to blue</text></g><g class="message" data-participant-1="Server" data-participant-2="SmartLight"><polygon fill="#181818" points="1125.5298,603.6875,1135.5298,607.6875,1125.5298,611.6875,1129.5298,607.6875" style="stroke:#181818;stroke-width:1;"/><line style="stroke:#181818;stroke-width:1;" x1="890.5381" x2="1131.5298" y1="607.6875" y2="607.6875"/><text fill="#000000" font-family="sans-serif" font-size="13" lengthAdjust="spacing" textLength="106.3486" x="897.5381" y="602.6216">Switch outlet off</text></g><g class="message" data-participant-1="User" data-participant-2="LPX"><polygon fill="#181818" points="159.6772,632.8203,169.6772,636.8203,159.6772,640.8203,163.6772,636.8203" style="stroke:#181818;stroke-width:1;"/><line style="stroke:#181818;stroke-width:1;" x1="23.9551" x2="165.6772" y1="636.8203" y2="636.8203"/><text fill="#000000" font-family="sans-serif" font-size="13" lengthAdjust="spacing" textLength="65.9712" x="30.9551" y="631.7544">Press Play</text></g><g class="message" data-participant-1="LPX" data-participant-2="Client"><polygon fill="#181818" points="498.9131,661.9531,508.9131,665.9531,498.9131,669.9531,502.9131,665.9531" style="stroke:#181818;stroke-width:1;"/><line style="stroke:#181818;stroke-width:1;" x1="171.6772" x2="504.9131" y1="665.9531" y2="665.9531"/><text fill="#000000" font-family="sans-serif" font-size="13" lengthAdjust="spacing" textLength="128.3242" x="178.6772" y="660.8872">Send MIDI message</text></g><g class="message" data-participant-1="Client" data-participant-2="Server"><polygon fill="#181818" points="878.5381,691.0859,888.5381,695.0859,878.5381,699.0859,882.5381,695.0859" style="stroke:#181818;stroke-width:1;"/><line style="stroke:#181818;stroke-width:1;" x1="510.9131" x2="884.5381" y1="695.0859" y2="695.0859"/><text fill="#000000" font-family="sans-serif" font-size="13" lengthAdjust="spacing" textLength="134.145" x="517.9131" y="690.02">Relay MIDI over OSC</text></g><g class="message" data-participant-1="Server" data-participant-2="SmartLight"><polygon fill="#181818" points="1125.5298,720.2188,1135.5298,724.2188,1125.5298,728.2188,1129.5298,724.2188" style="stroke:#181818;stroke-width:1;"/><line style="stroke:#181818;stroke-width:1;" x1="890.5381" x2="1131.5298" y1="724.2188" y2="724.2188"/><text fill="#000000" font-family="sans-serif" font-size="13" lengthAdjust="spacing" textLength="148.7954" x="897.5381" y="719.1528">Set RGB color to green</text></g><g class="message" data-participant-1="User" data-participant-2="LPX"><polygon fill="#181818" points="159.6772,749.3516,169.6772,753.3516,159.6772,757.3516,163.6772,753.3516" style="stroke:#181818;stroke-width:1;"/><line style="stroke:#181818;stroke-width:1;" x1="23.9551" x2="165.6772" y1="753.3516" y2="753.3516"/><text fill="#000000" font-family="sans-serif" font-size="13" lengthAdjust="spacing" textLength="103.8286" x="30.9551" y="748.2856">Quit Logic Pro X</text></g><g class="message" data-participant-1="LPX" data-participant-2="Keyboard"><polygon fill="#181818" points="770.4082,778.4844,780.4082,782.4844,770.4082,786.4844,774.4082,782.4844" style="stroke:#181818;stroke-width:1;"/><line style="stroke:#181818;stroke-width:1;" x1="171.6772" x2="776.4082" y1="782.4844" y2="782.4844"/><text fill="#000000" font-family="sans-serif" font-size="13" lengthAdjust="spacing" textLength="243.9341" x="178.6772" y="777.4185">Send CC 123 "All Notes Off" message</text></g><g class="message" data-participant-1="Keyboard" data-participant-2="Client"><polygon fill="#181818" points="521.9131,807.6172,511.9131,811.6172,521.9131,815.6172,517.9131,811.6172" style="stroke:#181818;stroke-width:1;"/><line style="stroke:#181818;stroke-width:1;" x1="515.9131" x2="781.4082" y1="811.6172" y2="811.6172"/><text fill="#000000" font-family="sans-serif" font-size="13" lengthAdjust="spacing" textLength="247.4951" x="527.9131" y="806.5513">Relay CC 123 "All Notes Off" message</text></g><g class="message" data-participant-1="Client" data-participant-2="Client"><line style="stroke:#181818;stroke-width:1;" x1="510.9131" x2="552.9131" y1="840.75" y2="840.75"/><line style="stroke:#181818;stroke-width:1;" x1="552.9131" x2="552.9131" y1="840.75" y2="853.75"/><line style="stroke:#181818;stroke-width:1;" x1="511.9131" x2="552.9131" y1="853.75" y2="853.75"/><polygon fill="#181818" points="521.9131,849.75,511.9131,853.75,521.9131,857.75,517.9131,853.75" style="stroke:#181818;stroke-width:1;"/><text fill="#000000" font-family="sans-serif" font-size="13" lengthAdjust="spacing" textLength="66.8599" x="517.9131" y="835.6841">Terminate</text></g><!--SRC=[jPJ1RjGm48RlUOfHJd00LBXnGA91gbOi9An1zEfu9wb5aecSIM7Vdh6JTNQRLYqItTlONyR_V8bN6oO7FmPqIKb_86sroHLarFOZeqiJa5-l7LjZUzqnf5kghO724Lode0VO5jThABzKe7ZSMmgCb6l6D1OxVjqV0fA5QarzsNpQm6SybAJTFf378i5k3v8vcOBlzD2NwDm12djFR1dm5jtnD1MgDNLLR7BOslg60-RBDQHQgIRgJJvoWnCSbiFgainxXLSVl2Hu3rizTkO6JWn6m0kBm68lxazw1DcD7KHpSNkQPzwEezuzlt0u3B13GsBFBvqsLZvqiDqAfMjCvgspzjZemqIHNybLTe9DGoZsUbmunNOrlFY9fIBp2_bbCZSIDfWM-BTbcPWwQ8Av1LXqXd0CkwjBCDJ8ryeaxVSFidFBy6QayrqBYgcV9KYyv_GWvomQjBGTz2r2HSI-xOCkgkeVPPJDY4-qKLNtVnI5pFF_L3mrUEqGL-_dssZvx8xCiOxt_XWio-3YxJj8FpODV2L6-PkfgZH6ZVZPxGbX7tbo6J8-znrTQplD-1S0]--></g></svg>